# xmcd CD database file
#
# Track frame offsets:
#	150
#	20369
#	40921
#	62361
#
# Disc length: 1099 seconds
#
# Revision: 2
# Processed by: cddbd v1.5.2PL0 Copyright (c) Steve Scherf et al.
# Submitted via: CDex 1.70beta3
#
DISCID=26044904
DTITLE=寿美菜子 - Shiny+
DYEAR=2010
DGENRE=seiyu
TTITLE0=Shiny+
TTITLE1=ライラック
TTITLE2=始まりの場所
TTITLE3=Shiny+ (Instrumental)
EXTD=YEAR: 2010
EXTT0=
EXTT1=
EXTT2=
EXTT3=
PLAYORDER=
